PathFileType	4	(x/y/z)	S01_SL_Cal.trc
DataRate	CameraRate	NumFrames	NumMarkers	Units	OrigDataRate	OrigDataStartFrame	OrigNumFrames
240	240	10	51	mm	240	301	2400
Frame#	Time	Sternum			R.Acromium			L.Acromium			Top.Head			R.ASIS			L.ASIS			R.PSIS			L.PSIS			R.Great.Tro			L.Great.Tro			R.Iliac.Crest			L.Iliac.Crest			V.Sacral			R.Thigh.Upper.Post			R.Thigh.Lower.Ant			R.Thigh.Lower.Post			R.Thigh.Upper.Ant			R.Knee.Lat			R.Knee.Med			R.Shank.Upper.Post			R.Shank.Lower.Ant			R.Shank.Lower.Post			R.Shank.Upper.Ant			R.Ankle.Lat			R.Ankle.Med			R.Heel.Upper			R.Heel.Med			R.Heel.Lat			R.Toe.Lat			R.Toe.Med			R.Toe.Tip			L.Thigh.Upper.Post			L.Thigh.Lower.Ant			L.Thigh.Lower.Post			L.Thigh.Upper.Ant			L.Knee.Lat			L.Knee.Med			L.Shank.Upper.Post			L.Shank.Lower.Ant			L.Shank.Lower.Post			L.Shank.Upper.Ant			L.Ankle.Lat			L.Ankle.Med			L.Heel.Upper			L.Heel.Med			L.Heel.Lat			L.Toe.Lat			L.Toe.Med			L.Toe.Tip			Cervical.Spine			Back			
		X1	Y1	Z1	X2	Y2	Z2	X3	Y3	Z3	X4	Y4	Z4	X5	Y5	Z5	X6	Y6	Z6	X7	Y7	Z7	X8	Y8	Z8	X9	Y9	Z9	X10	Y10	Z10	X11	Y11	Z11	X12	Y12	Z12	X13	Y13	Z13	X14	Y14	Z14	X15	Y15	Z15	X16	Y16	Z16	X17	Y17	Z17	X18	Y18	Z18	X19	Y19	Z19	X20	Y20	Z20	X21	Y21	Z21	X22	Y22	Z22	X23	Y23	Z23	X24	Y24	Z24	X25	Y25	Z25	X26	Y26	Z26	X27	Y27	Z27	X28	Y28	Z28	X29	Y29	Z29	X30	Y30	Z30	X31	Y31	Z31	X32	Y32	Z32	X33	Y33	Z33	X34	Y34	Z34	X35	Y35	Z35	X36	Y36	Z36	X37	Y37	Z37	X38	Y38	Z38	X39	Y39	Z39	X40	Y40	Z40	X41	Y41	Z41	X42	Y42	Z42	X43	Y43	Z43	X44	Y44	Z44	X45	Y45	Z45	X46	Y46	Z46	X47	Y47	Z47	X48	Y48	Z48	X49	Y49	Z49	X50	Y50	Z50	X51	Y51	Z51	

301	1.25	730.7	1313.9	259.65	585.89	1556	439.88	543.71	1564.5	115.49	519.04	1868.5	278.32	708.94	1046.1	419.43	701.41	1046.7	148.47	468.18	1080.3	333.13	462.39	1078.4	229.83	628.65	992.06	501.81	587.32	995.23	73.53	615.86	1142.8	484.29	583.21	1125.3	80.347	453.13	1042.7	280.09	584.64	694.66	496.87	644.31	614.8	472.31	576.03	606.43	481.51	656.44	704.21	486.74	589.41	536.88	477.44	593.47	526.8	335.19	508.39	390.57	513.64	559.25	297.56	481.1	495.54	320.6	508.18	568.39	370.03	492.03	476.12	111.92	490.09	509.43	110.03	398.36	408.68	78.491	435.84	420.27	47.445	407.27	416.67	49.123	471.9	605.13	34.14	529.08	636.63	39.964	405.83	700.1	54.471	461.08	520.24	726.57	84.963	593.71	645.02	72.749	518.49	635.72	95.72	586.55	739.84	60.488	552.23	541.65	79.56	586.55	529.21	216.31	481.02	411.39	56.074	538.01	316.45	66.266	477	333.67	52.886	542.82	393.4	64.489	458.84	112.7	75.363	491.37	118.29	168.57	391	79.104	120.48	401.8	51.649	152.73	398.88	53.378	90.843	602.61	37.485	41.653	628.45	47.064	163.3	690.02	58.169	112.42	481.65	1597.8	286.35	428.71	1278.2	305.08
302	1.2542	730.69	1313.9	259.66	585.89	1555.9	439.9	543.7	1564.5	115.51	519.04	1868.5	278.34	708.94	1046.1	419.44	701.4	1046.7	148.48	468.18	1080.3	333.16	462.39	1078.4	229.85	628.66	992.06	501.82	587.31	995.23	73.545	615.86	1142.8	484.31	583.2	1125.3	80.366	453.13	1042.7	280.1	584.64	694.65	496.88	644.32	614.8	472.32	576.03	606.43	481.51	656.45	704.21	486.74	589.41	536.88	477.45	593.47	526.8	335.2	508.4	390.57	513.65	559.25	297.56	481.11	495.55	320.6	508.18	568.39	370.03	492.03	476.12	111.92	490.09	509.43	110.03	398.36	408.68	78.491	435.84	420.27	47.445	407.27	416.67	49.124	471.9	605.13	34.139	529.08	636.63	39.964	405.83	700.1	54.47	461.08	520.23	726.57	84.979	593.7	645.02	72.759	518.48	635.72	95.733	586.54	739.84	60.499	552.22	541.66	79.569	586.55	529.21	216.32	481.01	411.39	56.082	538	316.45	66.272	476.99	333.67	52.895	542.81	393.4	64.497	458.84	112.7	75.366	491.37	118.29	168.57	391	79.104	120.48	401.8	51.648	152.73	398.88	53.379	90.844	602.61	37.485	41.654	628.45	47.064	163.3	690.02	58.169	112.42	481.65	1597.8	286.37	428.7	1278.2	305.09
303	1.2583	730.67	1313.9	259.68	585.9	1555.9	439.92	543.69	1564.5	115.53	519.05	1868.5	278.36	708.95	1046.1	419.45	701.39	1046.7	148.5	468.18	1080.3	333.18	462.39	1078.4	229.87	628.66	992.06	501.83	587.29	995.23	73.56	615.86	1142.8	484.32	583.2	1125.3	80.384	453.13	1042.7	280.12	584.65	694.65	496.89	644.32	614.8	472.33	576.04	606.43	481.52	656.45	704.2	486.75	589.41	536.88	477.46	593.47	526.8	335.21	508.4	390.57	513.65	559.25	297.56	481.11	495.55	320.6	508.18	568.39	370.02	492.04	476.12	111.92	490.09	509.44	110.03	398.36	408.68	78.491	435.84	420.27	47.445	407.27	416.67	49.124	471.9	605.13	34.138	529.08	636.63	39.964	405.83	700.1	54.469	461.08	520.22	726.57	84.994	593.69	645.02	72.769	518.47	635.72	95.747	586.53	739.84	60.511	552.22	541.66	79.578	586.54	529.21	216.33	481.01	411.4	56.09	538	316.46	66.277	476.98	333.67	52.905	542.81	393.41	64.505	458.84	112.71	75.369	491.37	118.29	168.58	391	79.104	120.48	401.8	51.648	152.73	398.88	53.38	90.845	602.61	37.485	41.655	628.45	47.062	163.3	690.02	58.17	112.42	481.66	1597.8	286.39	428.7	1278.2	305.11
304	1.2625	730.65	1313.9	259.69	585.9	1555.9	439.93	543.69	1564.5	115.54	519.05	1868.5	278.39	708.95	1046.1	419.46	701.39	1046.7	148.51	468.19	1080.3	333.2	462.38	1078.4	229.9	628.67	992.06	501.85	587.28	995.23	73.575	615.86	1142.8	484.34	583.19	1125.3	80.403	453.12	1042.7	280.14	584.66	694.65	496.89	644.33	614.8	472.34	576.04	606.43	481.53	656.46	704.2	486.76	589.41	536.87	477.47	593.47	526.8	335.21	508.4	390.57	513.66	559.25	297.56	481.11	495.55	320.6	508.18	568.39	370.02	492.04	476.12	111.92	490.09	509.44	110.03	398.36	408.68	78.491	435.84	420.27	47.445	407.27	416.67	49.124	471.9	605.13	34.137	529.08	636.63	39.965	405.83	700.1	54.469	461.08	520.22	726.58	85.009	593.68	645.03	72.779	518.46	635.72	95.76	586.52	739.85	60.522	552.21	541.66	79.586	586.54	529.21	216.33	481	411.4	56.098	537.99	316.46	66.282	476.97	333.67	52.913	542.8	393.41	64.512	458.84	112.71	75.371	491.37	118.29	168.58	391	79.105	120.48	401.8	51.647	152.73	398.88	53.381	90.846	602.61	37.484	41.656	628.45	47.061	163.3	690.02	58.169	112.42	481.66	1597.8	286.41	428.69	1278.2	305.12
305	1.2667	730.64	1313.9	259.71	585.9	1555.9	439.95	543.68	1564.5	115.56	519.06	1868.5	278.41	708.95	1046.1	419.47	701.38	1046.7	148.52	468.19	1080.3	333.23	462.38	1078.4	229.92	628.68	992.06	501.86	587.27	995.23	73.589	615.87	1142.8	484.35	583.19	1125.3	80.421	453.12	1042.7	280.16	584.67	694.65	496.9	644.33	614.79	472.34	576.05	606.43	481.54	656.47	704.2	486.77	589.42	536.87	477.48	593.47	526.8	335.22	508.4	390.56	513.66	559.25	297.55	481.12	495.55	320.6	508.19	568.4	370.02	492.04	476.12	111.92	490.09	509.44	110.03	398.36	408.68	78.49	435.85	420.27	47.445	407.27	416.67	49.124	471.9	605.13	34.136	529.08	636.63	39.965	405.83	700.1	54.468	461.08	520.21	726.58	85.024	593.67	645.03	72.788	518.45	635.72	95.774	586.51	739.85	60.532	552.2	541.66	79.594	586.53	529.21	216.34	481	411.4	56.105	537.99	316.46	66.287	476.97	333.67	52.922	542.8	393.41	64.519	458.84	112.71	75.374	491.37	118.28	168.58	391	79.106	120.49	401.8	51.647	152.74	398.88	53.382	90.847	602.62	37.484	41.657	628.45	47.06	163.3	690.02	58.169	112.42	481.66	1597.8	286.43	428.69	1278.2	305.13
306	1.2708	730.62	1313.9	259.72	585.89	1555.9	439.97	543.67	1564.5	115.58	519.06	1868.6	278.43	708.96	1046.1	419.48	701.37	1046.7	148.53	468.19	1080.3	333.25	462.38	1078.4	229.94	628.69	992.06	501.87	587.26	995.23	73.604	615.87	1142.8	484.37	583.18	1125.3	80.438	453.12	1042.7	280.18	584.67	694.65	496.91	644.34	614.79	472.35	576.05	606.43	481.55	656.47	704.2	486.77	589.42	536.87	477.48	593.47	526.8	335.22	508.4	390.56	513.67	559.25	297.55	481.12	495.55	320.6	508.19	568.4	370.01	492.05	476.12	111.92	490.09	509.44	110.03	398.36	408.68	78.49	435.85	420.27	47.445	407.27	416.67	49.124	471.91	605.13	34.135	529.08	636.63	39.965	405.84	700.1	54.467	461.08	520.2	726.58	85.039	593.66	645.03	72.797	518.44	635.72	95.786	586.5	739.85	60.543	552.19	541.66	79.601	586.53	529.21	216.35	480.99	411.41	56.112	537.98	316.46	66.292	476.96	333.66	52.93	542.79	393.41	64.525	458.84	112.71	75.376	491.37	118.28	168.58	391	79.108	120.49	401.8	51.647	152.74	398.88	53.383	90.848	602.62	37.484	41.658	628.45	47.058	163.3	690.02	58.169	112.42	481.66	1597.8	286.45	428.69	1278.2	305.15
307	1.275	730.61	1313.8	259.73	585.89	1555.9	439.98	543.67	1564.5	115.6	519.07	1868.6	278.45	708.96	1046.1	419.49	701.36	1046.7	148.54	468.19	1080.2	333.28	462.37	1078.4	229.96	628.7	992.07	501.89	587.25	995.23	73.618	615.87	1142.8	484.38	583.18	1125.3	80.455	453.12	1042.7	280.2	584.68	694.65	496.92	644.34	614.79	472.36	576.06	606.43	481.56	656.48	704.2	486.78	589.42	536.87	477.49	593.47	526.8	335.23	508.4	390.56	513.67	559.25	297.55	481.12	495.55	320.59	508.2	568.4	370.01	492.05	476.12	111.92	490.09	509.44	110.03	398.36	408.68	78.49	435.85	420.27	47.446	407.27	416.67	49.124	471.91	605.13	34.134	529.08	636.63	39.965	405.84	700.1	54.466	461.08	520.19	726.58	85.052	593.65	645.04	72.806	518.43	635.71	95.799	586.49	739.85	60.553	552.19	541.67	79.608	586.53	529.2	216.36	480.99	411.41	56.119	537.98	316.46	66.296	476.96	333.66	52.938	542.79	393.42	64.53	458.85	112.71	75.379	491.37	118.28	168.58	391	79.109	120.49	401.8	51.647	152.74	398.88	53.384	90.848	602.62	37.483	41.658	628.45	47.056	163.3	690.02	58.168	112.42	481.66	1597.9	286.47	428.68	1278.2	305.16
308	1.2792	730.59	1313.8	259.74	585.89	1555.9	440	543.66	1564.5	115.62	519.08	1868.6	278.47	708.96	1046.1	419.5	701.35	1046.7	148.54	468.19	1080.2	333.3	462.37	1078.4	229.98	628.71	992.07	501.9	587.23	995.23	73.632	615.87	1142.8	484.39	583.17	1125.3	80.472	453.12	1042.7	280.22	584.69	694.65	496.93	644.35	614.79	472.37	576.07	606.43	481.57	656.48	704.2	486.79	589.42	536.86	477.5	593.47	526.8	335.23	508.4	390.56	513.68	559.26	297.55	481.13	495.55	320.59	508.2	568.4	370.01	492.05	476.12	111.92	490.09	509.44	110.03	398.36	408.68	78.489	435.85	420.27	47.446	407.27	416.67	49.124	471.91	605.13	34.133	529.08	636.63	39.965	405.84	700.1	54.466	461.08	520.18	726.58	85.065	593.64	645.04	72.814	518.43	635.71	95.811	586.48	739.86	60.563	552.18	541.67	79.615	586.53	529.2	216.36	480.98	411.41	56.125	537.98	316.47	66.3	476.95	333.66	52.946	542.78	393.42	64.535	458.85	112.71	75.381	491.37	118.28	168.58	391	79.111	120.49	401.8	51.648	152.74	398.88	53.386	90.849	602.62	37.483	41.659	628.45	47.054	163.3	690.02	58.167	112.42	481.66	1597.9	286.49	428.68	1278.2	305.17
309	1.2833	730.57	1313.8	259.75	585.89	1555.9	440.01	543.65	1564.5	115.63	519.08	1868.6	278.49	708.96	1046.1	419.51	701.34	1046.7	148.55	468.19	1080.2	333.32	462.36	1078.5	230	628.72	992.07	501.91	587.22	995.23	73.646	615.87	1142.8	484.41	583.16	1125.3	80.488	453.12	1042.7	280.24	584.69	694.65	496.94	644.35	614.79	472.37	576.07	606.43	481.57	656.49	704.2	486.79	589.43	536.86	477.51	593.47	526.8	335.24	508.41	390.56	513.68	559.26	297.55	481.13	495.55	320.6	508.2	568.4	370.01	492.06	476.12	111.92	490.09	509.44	110.03	398.36	408.68	78.489	435.85	420.27	47.446	407.27	416.67	49.124	471.91	605.13	34.133	529.08	636.63	39.965	405.84	700.1	54.465	461.08	520.17	726.58	85.078	593.63	645.04	72.822	518.42	635.71	95.822	586.47	739.86	60.573	552.18	541.67	79.621	586.52	529.2	216.37	480.98	411.42	56.132	537.98	316.47	66.304	476.95	333.66	52.953	542.78	393.42	64.54	458.85	112.71	75.383	491.37	118.28	168.59	391	79.112	120.49	401.8	51.648	152.74	398.88	53.387	90.849	602.62	37.482	41.66	628.45	47.051	163.3	690.02	58.166	112.42	481.66	1597.9	286.51	428.67	1278.2	305.19
310	1.2875	730.56	1313.8	259.76	585.89	1555.9	440.03	543.64	1564.5	115.65	519.09	1868.6	278.51	708.97	1046.1	419.52	701.33	1046.8	148.56	468.2	1080.2	333.35	462.36	1078.5	230.02	628.73	992.07	501.93	587.2	995.23	73.66	615.88	1142.8	484.42	583.15	1125.3	80.503	453.12	1042.7	280.26	584.7	694.65	496.95	644.36	614.79	472.38	576.08	606.43	481.58	656.49	704.2	486.8	589.43	536.86	477.51	593.46	526.8	335.25	508.41	390.56	513.69	559.26	297.55	481.13	495.56	320.6	508.21	568.4	370.01	492.06	476.12	111.92	490.1	509.44	110.03	398.36	408.68	78.489	435.85	420.27	47.446	407.27	416.67	49.123	471.91	605.13	34.133	529.08	636.63	39.965	405.84	700.1	54.465	461.08	520.17	726.58	85.09	593.62	645.05	72.83	518.41	635.71	95.833	586.46	739.86	60.582	552.17	541.67	79.627	586.52	529.2	216.37	480.97	411.42	56.137	537.97	316.47	66.307	476.94	333.66	52.959	542.78	393.43	64.544	458.85	112.71	75.385	491.38	118.28	168.59	391.01	79.113	120.49	401.8	51.649	152.74	398.88	53.388	90.85	602.62	37.481	41.66	628.45	47.049	163.3	690.02	58.165	112.42	481.66	1597.9	286.53	428.67	1278.2	305.2
